<svg xmlns="http://www.w3.org/2000/svg" xml:space="preserve" width="256px" height="256px" version="1.1" style="shape-rendering:geometricPrecision; text-rendering:geometricPrecision; image-rendering:optimizeQuality; fill-rule:evenodd; clip-rule:evenodd"
viewBox="0 0 256 256"
 xmlns:xlink="http://www.w3.org/1999/xlink"
 xmlns:xodm="http://www.corel.com/coreldraw/odm/2003">
  <path fill="#B4BDC2" d="M224.08 209.9c1.24,2.15 0.51,4.9 -1.64,6.14 -2.14,1.24 -4.89,0.51 -6.13,-1.64l-23.02 -39.87 -108 25.76c-2.6,0.62 -5.51,0.27 -8.08,-0.79 -2.55,-1.06 -4.87,-2.85 -6.34,-5.12l-46.91 -72.32c-0.7,-1.07 -1.17,-2.17 -1.42,-3.24 -0.42,-1.77 -0.3,-3.53 0.32,-5.12 0.63,-1.62 1.75,-3.01 3.3,-4.02 0.92,-0.59 1.96,-1.05 3.11,-1.32l110.59 -26.37 -23.35 -40.43c-1.24,-2.15 -0.51,-4.9 1.64,-6.14 2.14,-1.24 4.89,-0.51 6.13,1.64l24.69 42.75 21.74 -5.18c2.6,-0.62 5.51,-0.27 8.08,0.79 2.55,1.05 4.87,2.84 6.34,5.12l46.91 72.31c0.68,1.05 1.14,2.15 1.41,3.25l0.02 0c0.42,1.77 0.29,3.52 -0.33,5.12 -0.63,1.62 -1.75,3.01 -3.3,4.01 -0.91,0.6 -1.96,1.05 -3.11,1.33l-24.33 5.8 21.68 37.54zm-183.53 -78.75l144.38 -34.43 -7.32 -11.3c-0.47,-0.71 -1.29,-1.31 -2.23,-1.7 -0.9,-0.38 -1.85,-0.52 -2.6,-0.34l-141.35 33.71 9.12 14.06zm158.72 -12.33l-144.38 34.43 23.5 36.25c0.47,0.71 1.29,1.31 2.23,1.7 0.9,0.37 1.85,0.52 2.6,0.34l141.35 -33.71 -25.3 -39.01zm25.46 39.35l-0.01 -0.02 -0.01 0.02 0.02 0z"/>
</svg>
