<svg xmlns="http://www.w3.org/2000/svg" xml:space="preserve" width="256px" height="256px" version="1.1" style="shape-rendering:geometricPrecision; text-rendering:geometricPrecision; image-rendering:optimizeQuality; fill-rule:evenodd; clip-rule:evenodd"
viewBox="0 0 256 256"
 xmlns:xlink="http://www.w3.org/1999/xlink"
 xmlns:xodm="http://www.corel.com/coreldraw/odm/2003">
   <path fill="#00f" d="M128 34.8c18.81,0 35.84,7.63 48.17,19.96 12.32,12.33 19.95,29.36 19.95,48.16 0,15.62 -5.26,30 -14.09,41.49l0.03 0.03c8.53,6.68 15.46,14.93 20.22,24.24 4.61,9.04 7.18,19.03 7.18,29.52 0,4 -0.38,7.97 -1.12,11.87 -0.74,3.94 -1.85,7.78 -3.29,11.49 -0.89,2.31 -3.49,3.46 -5.8,2.56 -2.31,-0.89 -3.46,-3.49 -2.57,-5.8 1.24,-3.19 2.2,-6.5 2.84,-9.9 0.62,-3.29 0.94,-6.7 0.94,-10.22 0,-9.08 -2.2,-17.69 -6.16,-25.44 -4.15,-8.13 -10.25,-15.37 -17.76,-21.26 -0.15,-0.11 -0.29,-0.24 -0.42,-0.37 -8.04,8.03 -18.08,14.06 -29.3,17.28l-14.61 36.41 -0.04 0.1 0 0.01 -0.04 0.09 -0.01 0.02 -0.03 0.08 -0.01 0.02 -0.04 0.08 -0.01 0.02 -0.01 0.01 -0.04 0.09 -0.04 0.07 -0.02 0.04 -0.03 0.05 -0.02 0.04 -0.04 0.06 -0.02 0.04 -0.03 0.05 -0.03 0.04 -0.03 0.05 -0.03 0.05 -0.03 0.04 -0.04 0.05 -0.03 0.03 -0.04 0.05 -0.02 0.04 -0.05 0.05 -0.14 0.17 -0.03 0.03 -0.04 0.05 -0.03 0.03 -0.05 0.05 -0.03 0.03 -0.05 0.04 -0.16 0.15 -0.03 0.03 -0.05 0.04c-0.24,0.2 -0.5,0.37 -0.78,0.52l-0.03 0.02c-0.13,0.06 -0.25,0.12 -0.39,0.17l0 0 -0.1 0.04 0 0 -0.1 0.04 -0.01 0 -0.2 0.07 -0.02 0 -0.08 0.02 -0.11 0.03 -0.03 0.01 -0.07 0.02 -0.04 0 -0.07 0.02 -0.21 0.03 -0.05 0.01 -0.06 0.01 -0.05 0 -0.06 0.01 -0.05 0 -0.06 0.01 -0.05 0 -0.06 0 -0.05 0 -0.05 0.01 -0.06 0 -0.05 0 -0.06 0 -0.05 -0.01 -0.06 0 -0.05 0 -0.06 0 -0.05 -0.01 -0.06 0 -0.05 -0.01 -0.05 0 -0.06 -0.01 -0.05 -0.01 -0.22 -0.03 -0.06 -0.02 -0.04 0 -0.07 -0.02 -0.04 -0.01 -0.1 -0.03 -0.08 -0.02 -0.02 0 -0.2 -0.07 -0.01 0 -0.1 -0.04 0 0 -0.1 -0.04 -0.01 0c-0.13,-0.05 -0.26,-0.11 -0.38,-0.17l-0.03 -0.02c-0.29,-0.15 -0.55,-0.32 -0.78,-0.52l-0.05 -0.04 -0.04 -0.03 -0.16 -0.15 -0.05 -0.04 -0.03 -0.03 -0.04 -0.05 -0.03 -0.03 -0.05 -0.05 -0.03 -0.03 -0.14 -0.17 -0.04 -0.05 -0.03 -0.04 -0.04 -0.05 -0.02 -0.03 -0.04 -0.05 -0.03 -0.04 -0.03 -0.05 -0.03 -0.05 -0.03 -0.04 -0.03 -0.05 -0.03 -0.04 -0.03 -0.06 -0.02 -0.04 -0.04 -0.05 -0.02 -0.04 -0.03 -0.07 -0.05 -0.09 0 -0.01 -0.01 -0.02 -0.04 -0.08 -0.01 -0.02 -0.04 -0.08 0 -0.02 -0.04 -0.09 0 -0.01 -0.04 -0.1 -14.61 -36.41c-11.23,-3.22 -21.27,-9.25 -29.31,-17.28 -0.13,0.13 -0.27,0.26 -0.42,0.37 -7.51,5.89 -13.6,13.13 -17.76,21.26 -3.95,7.75 -6.16,16.36 -6.16,25.44 0,3.52 0.33,6.93 0.94,10.22 0.64,3.4 1.6,6.71 2.84,9.9 0.89,2.31 -0.26,4.91 -2.57,5.8 -2.31,0.9 -4.9,-0.25 -5.8,-2.56 -1.44,-3.71 -2.55,-7.55 -3.29,-11.49 -0.73,-3.9 -1.12,-7.87 -1.12,-11.87 0,-10.49 2.57,-20.48 7.18,-29.52 4.76,-9.31 11.69,-17.56 20.23,-24.24l0.03 -0.03c-8.84,-11.49 -14.1,-25.87 -14.1,-41.49 0,-18.8 7.63,-35.83 19.96,-48.16 12.32,-12.33 29.35,-19.96 48.16,-19.96zm-16.25 47.2c3.32,0 6,2.69 6,6 0,3.31 -2.68,6 -6,6 -3.31,0 -6,-2.69 -6,-6 0,-3.31 2.69,-6 6,-6zm32.5 0c3.31,0 6,2.69 6,6 0,3.31 -2.69,6 -6,6 -3.31,0 -6,-2.69 -6,-6 0,-3.31 2.69,-6 6,-6zm-2.86 44.11c2.15,-1.23 4.89,-0.49 6.12,1.66 1.23,2.14 0.49,4.88 -1.65,6.11 -2.74,1.58 -5.64,2.79 -8.61,3.58 -3.02,0.81 -6.13,1.23 -9.25,1.23 -3.12,0 -6.23,-0.42 -9.25,-1.23 -2.97,-0.79 -5.87,-2 -8.6,-3.58 -2.15,-1.23 -2.89,-3.97 -1.66,-6.11 1.23,-2.15 3.97,-2.89 6.12,-1.66 2.01,1.16 4.19,2.06 6.46,2.67 2.24,0.6 4.57,0.91 6.93,0.91 2.36,0 4.69,-0.31 6.93,-0.91 2.28,-0.61 4.45,-1.51 6.46,-2.67zm-5.1 44.43c-2.72,0.33 -5.48,0.5 -8.29,0.5 -2.8,0 -5.57,-0.17 -8.28,-0.5l8.28 20.66 8.29 -20.66zm33.51 -109.42c-10.69,-10.7 -25.47,-17.32 -41.8,-17.32 -16.32,0 -31.11,6.62 -41.8,17.32 -10.7,10.7 -17.32,25.48 -17.32,41.8 0,16.33 6.62,31.11 17.32,41.81 10.69,10.69 25.48,17.31 41.8,17.31 16.33,0 31.11,-6.62 41.8,-17.31 10.7,-10.7 17.32,-25.48 17.32,-41.81 0,-16.32 -6.62,-31.1 -17.32,-41.8z"/>
</svg>
